<svg width="34" height="47" fill="none" xmlns="http://www.w3.org/2000/svg">
  <g clip-path="url(#a)">
    <path d="m6.34 1.431 2.47-.79c2.318-.74 4.794.457 5.787 2.796l1.975 4.658c.859 2.028.381 4.414-1.18 5.898l-4.353 4.13c.268 2.471 1.1 4.903 2.492 7.297a19.93 19.93 0 0 0 5.214 5.96l5.227-1.746c1.98-.659 4.14.101 5.352 1.886l2.832 4.157c1.413 2.077 1.157 4.939-.595 6.698l-1.877 1.886c-1.87 1.876-4.54 2.558-7.01 1.787-5.833-1.82-11.192-7.22-16.084-16.2-4.9-8.994-6.629-16.63-5.187-22.895.607-2.637 2.483-4.738 4.936-5.522Z" fill="#fff"/>
  </g>
  <defs>
    <clipPath id="a">
      <path fill="#fff" transform="translate(.615 .24)" d="M0 0h33.075v46.304H0z"/>
    </clipPath>
  </defs>
</svg>
