<svg width="46" height="58" viewBox="0 0 46 58" fill="none" xmlns="http://www.w3.org/2000/svg">
<g clip-path="url(#clip0_0_2795)">
<path d="M22.8059 0.221924C16.8139 0.228993 11.0694 2.61242 6.83244 6.84938C2.59548 11.0863 0.212049 16.8309 0.20498 22.8228C0.197804 27.7195 1.79728 32.4832 4.75804 36.3834C4.75804 36.3834 5.37442 37.195 5.4751 37.3121L22.8059 57.7515L40.1449 37.3018C40.2353 37.1929 40.8537 36.3834 40.8537 36.3834L40.8558 36.3772C43.8151 32.4788 45.4138 27.7172 45.4068 22.8228C45.3997 16.8309 43.0163 11.0863 38.7793 6.84938C34.5424 2.61242 28.7978 0.228993 22.8059 0.221924ZM22.8059 31.0413C21.1804 31.0413 19.5915 30.5593 18.2399 29.6563C16.8884 28.7532 15.835 27.4697 15.213 25.9679C14.5909 24.4662 14.4282 22.8137 14.7453 21.2195C15.0624 19.6252 15.8451 18.1608 16.9945 17.0115C18.1439 15.8621 19.6083 15.0793 21.2025 14.7622C22.7968 14.4451 24.4492 14.6079 25.951 15.2299C27.4527 15.852 28.7363 16.9053 29.6393 18.2569C30.5424 19.6084 31.0244 21.1974 31.0244 22.8228C31.0217 25.0017 30.1549 27.0905 28.6142 28.6312C27.0736 30.1719 24.9847 31.0386 22.8059 31.0413Z" fill="white"/>
</g>
<defs>
<clipPath id="clip0_0_2795">
<rect width="45.2019" height="57.5296" fill="white" transform="translate(0.205078 0.221924)"/>
</clipPath>
</defs>
</svg>
