<svg width="47" height="47" viewBox="0 0 47 47" fill="none" xmlns="http://www.w3.org/2000/svg">
<g clip-path="url(#clip0_0_2788)">
<path d="M33.0663 27.7379C33.2482 26.2372 33.3846 24.7364 33.3846 23.1902C33.3846 21.6439 33.2482 20.1432 33.0663 18.6424H40.752C41.1158 20.0977 41.3432 21.6212 41.3432 23.1902C41.3432 24.7591 41.1158 26.2826 40.752 27.7379H33.0663ZM29.0415 40.3806C30.4059 37.8566 31.4518 35.128 32.1795 32.2857H38.8874C36.6844 36.0791 33.1893 38.9526 29.0415 40.3806ZM28.4731 27.7379H17.8313C17.6039 26.2372 17.4675 24.7364 17.4675 23.1902C17.4675 21.6439 17.6039 20.1204 17.8313 18.6424H28.4731C28.6777 20.1204 28.8369 21.6439 28.8369 23.1902C28.8369 24.7364 28.6777 26.2372 28.4731 27.7379ZM23.1522 41.2902C21.2649 38.5615 19.7414 35.5373 18.8091 32.2857H27.4953C26.563 35.5373 25.0395 38.5615 23.1522 41.2902ZM14.0567 14.0947H7.41698C9.5973 10.291 13.0898 7.41285 17.2401 5.99967C15.8758 8.52367 14.8526 11.2523 14.0567 14.0947ZM7.41698 32.2857H14.0567C14.8526 35.128 15.8758 37.8566 17.2401 40.3806C13.0985 38.9519 9.61092 36.0778 7.41698 32.2857ZM5.55241 27.7379C5.18859 26.2826 4.9612 24.7591 4.9612 23.1902C4.9612 21.6212 5.18859 20.0977 5.55241 18.6424H13.2381C13.0562 20.1432 12.9198 21.6439 12.9198 23.1902C12.9198 24.7364 13.0562 26.2372 13.2381 27.7379H5.55241ZM23.1522 5.06738C25.0395 7.79603 26.563 10.843 27.4953 14.0947H18.8091C19.7414 10.843 21.2649 7.79603 23.1522 5.06738ZM38.8874 14.0947H32.1795C31.4678 11.2784 30.414 8.55982 29.0415 5.99967C33.2255 7.43221 36.7045 10.32 38.8874 14.0947ZM23.1522 0.451416C10.5777 0.451416 0.413452 10.6839 0.413452 23.1902C0.413452 29.2208 2.80913 35.0045 7.07348 39.2689C9.18496 41.3804 11.6917 43.0553 14.4505 44.198C17.2092 45.3407 20.1661 45.9289 23.1522 45.9289C29.1829 45.9289 34.9666 43.5332 39.2309 39.2689C43.4953 35.0045 45.8909 29.2208 45.8909 23.1902C45.8909 20.2041 45.3028 17.2472 44.1601 14.4884C43.0173 11.7296 41.3424 9.22293 39.2309 7.11144C37.1194 4.99995 34.6127 3.32503 31.8539 2.1823C29.0951 1.03957 26.1383 0.451416 23.1522 0.451416Z" fill="white"/>
</g>
<defs>
<clipPath id="clip0_0_2788">
<rect width="46.3043" height="46.3043" fill="white" transform="translate(0 0.0383301)"/>
</clipPath>
</defs>
</svg>
